<svg xmlns="http://www.w3.org/2000/svg" version="1.1" xmlns:xlink="http://www.w3.org/1999/xlink" xmlns:svgjs="http://svgjs.com/svgjs" width="512" height="512" x="0" y="0" viewBox="0 0 512 512" style="enable-background:new 0 0 512 512" xml:space="preserve" class="">
    <g>
        <g xmlns="http://www.w3.org/2000/svg" id="_x31_3_Christmas_Card">
            <g>
                <path d="m502.814 99.688-107.928 391.798c-3.12 11.33-14.836 17.984-26.164 14.863l-264.116-72.755c-11.33-3.12-17.984-14.836-14.863-26.164l107.928-391.798c3.12-11.33 14.836-17.984 26.164-14.863l264.116 72.755c11.33 3.12 17.984 14.835 14.863 26.164z" fill="#f76959" data-original="#f76959"></path>
                <path d="m324.926 84.329v406.392c0 11.752-9.526 21.278-21.278 21.278h-273.953c-11.752 0-21.278-9.526-21.278-21.278v-406.392c0-11.752 9.526-21.278 21.278-21.278h273.953c11.751 0 21.278 9.527 21.278 21.278z" fill="#d0dbe1" data-original="#d0dbe1" class=""></path>
                <path d="m190.578 339.28v41.879c0 6.158-4.984 11.197-11.197 11.197h-26.818c-6.158 0-11.197-5.04-11.197-11.197v-42.047c16.402 1.96 32.807 2.015 49.212.168z" fill="#c7a871" data-original="#c7a871"></path>
                <path d="m269.351 316.571c-68.454 32.063-136.907 32.063-205.361 0-8.751-4.099-10.34-15.86-2.848-21.966l45.151-36.798c-8.608-2.741-17.227-6.069-25.844-9.98-8.88-4.031-10.591-15.885-3.033-22.047l49.059-39.987c-6.482-1.818-12.958-4.084-19.434-6.795-9.073-3.798-10.837-15.941-3.213-22.156l54.616-44.53c4.789-3.905 11.663-3.905 16.452 0l54.616 44.53c7.624 6.216 5.86 18.358-3.213 22.156-6.476 2.711-12.951 4.977-19.434 6.795l49.059 39.987c7.559 6.161 5.847 18.016-3.033 22.047-8.617 3.911-17.235 7.238-25.844 9.98l45.151 36.798c7.492 6.106 5.905 17.867-2.847 21.966z" fill="#9ec33b" data-original="#9ec33b"></path>
                <g fill="#fff">
                    <path d="m215.821 438.052h-98.301c-2.938 0-5.32-2.382-5.32-5.32s2.382-5.32 5.32-5.32h98.301c2.938 0 5.32 2.382 5.32 5.32s-2.383 5.32-5.32 5.32z" fill="#ffffff" data-original="#ffffff"></path>
                    <path d="m265.833 474.764h-198.327c-2.938 0-5.32-2.382-5.32-5.32s2.382-5.32 5.32-5.32h198.327c2.938 0 5.32 2.382 5.32 5.32s-2.382 5.32-5.32 5.32z" fill="#ffffff" data-original="#ffffff"></path>
                </g>
            </g>
        </g>
    </g>
</svg>